<?xml version="1.0" encoding="utf-8"?>
<!-- Generator: Adobe Illustrator 15.1.0, SVG Export Plug-In . SVG Version: 6.00 Build 0)  -->
<!DOCTYPE svg PUBLIC "-//W3C//DTD SVG 1.1//EN" "http://www.w3.org/Graphics/SVG/1.1/DTD/svg11.dtd">
<svg version="1.1" id="Layer_1" xmlns="http://www.w3.org/2000/svg" xmlns:xlink="http://www.w3.org/1999/xlink" x="0px" y="0px"
	 width="30px" height="30px" viewBox="0 0 30 30" enable-background="new 0 0 30 30" xml:space="preserve">
<g>
	<rect fill="#2998CF" width="30" height="30"/>
	<g>
		<path fill="#A8D1DB" d="M11.186,16.324l1.418,4.34c0.104,0.307,0.481,0.418,0.732,0.211l4.236-3.496c0,0-4.502-1.756-4.502-1.66
			S11.186,16.324,11.186,16.324"/>
		<path fill="#FFFFFF" d="M22.362,7.986C19.596,9.08,10.668,12.74,7.288,14.125c-0.447,0.186-0.419,0.824,0.039,0.971l3.858,1.229
			l1.416,4.326c0.056,0.174,0.2,0.285,0.359,0.316c0.13,0.023,0.322-3.502,0.322-3.502s4.057,3.008,5.979,4.428
			c0.474,0.35,1.151,0.086,1.264-0.49c0.574-2.955,2.007-10.342,2.496-12.867C23.097,8.156,22.724,7.844,22.362,7.986"/>
		<path fill="#D3E2EA" d="M12.961,20.967c0.13,0.023,0.322-3.502,0.322-3.502l6.664-6.262c0.045-0.041-0.009-0.113-0.062-0.082
			l-8.7,5.203l1.416,4.326C12.657,20.824,12.802,20.936,12.961,20.967"/>
	</g>
</g>
</svg>
