<?xml version="1.0" encoding="utf-8"?>
<!-- Generator: Adobe Illustrator 15.1.0, SVG Export Plug-In . SVG Version: 6.00 Build 0)  -->
<!DOCTYPE svg PUBLIC "-//W3C//DTD SVG 1.1//EN" "http://www.w3.org/Graphics/SVG/1.1/DTD/svg11.dtd">
<svg version="1.1" id="Layer_1" xmlns="http://www.w3.org/2000/svg" xmlns:xlink="http://www.w3.org/1999/xlink" x="0px" y="0px"
	 width="30px" height="30px" viewBox="0 0 30 30" enable-background="new 0 0 30 30" xml:space="preserve">
<g>
	<rect fill="#39A935" width="30" height="30"/>
	<g>
		<path fill="#FFFFFF" d="M23.866,13.75c0-3.963-3.98-7.197-8.868-7.197c-4.885,0-8.864,3.234-8.864,7.197
			c0,3.557,3.159,6.529,7.416,7.098c0.287,0.066,0.681,0.189,0.782,0.434c0.086,0.232,0.059,0.582,0.024,0.805
			c0,0-0.102,0.623-0.122,0.76c-0.043,0.221-0.178,0.879,0.764,0.475c0.951-0.402,5.111-2.998,6.966-5.143l0,0
			C23.248,16.764,23.866,15.338,23.866,13.75"/>
		<path fill="#39A935" d="M13.202,11.83h-0.627c-0.096,0-0.167,0.082-0.167,0.178v3.863c0,0.096,0.071,0.168,0.167,0.168h0.627
			c0.095,0,0.167-0.072,0.167-0.168v-3.863C13.369,11.912,13.297,11.83,13.202,11.83"/>
		<path fill="#39A935" d="M17.482,11.83h-0.627c-0.098,0-0.17,0.082-0.17,0.178v2.295l-1.771-2.391
			c-0.001-0.01-0.012-0.012-0.012-0.023l0,0c0,0-0.012-0.006-0.012-0.012h-0.003c-0.007,0-0.009-0.006-0.009-0.012h-0.007
			c0,0-0.005-0.002-0.005-0.006c-0.004-0.002-0.009-0.006-0.009-0.006h-0.01c0,0-0.006-0.002-0.006-0.004
			c0-0.004-0.006-0.008-0.012-0.008l0,0h-0.012c0,0-0.005,0-0.012-0.002c0-0.002,0-0.004-0.005-0.006c0,0-0.008,0-0.008-0.002
			s-0.008-0.002-0.008-0.002h-0.012h-0.004H14.15c-0.096,0-0.175,0.082-0.175,0.178v3.863c0,0.096,0.079,0.168,0.175,0.168h0.621
			c0.096,0,0.171-0.072,0.171-0.168v-2.295l1.774,2.391c0.013,0.018,0.028,0.035,0.04,0.045c0,0.002,0,0.002,0,0.004
			c0.011,0,0.012,0,0.012,0s0.007,0,0.012,0.004c0,0.004,0,0.008,0,0.008c0.01,0,0.013,0,0.013,0h0.006c0,0,0.006,0.006,0.012,0.008
			l0.006,0.002c0.012,0.002,0.023,0.002,0.039,0.002h0.627c0.095,0,0.166-0.072,0.166-0.168v-3.863
			C17.648,11.912,17.577,11.83,17.482,11.83"/>
		<path fill="#39A935" d="M11.701,15.076H10.01v-3.068c0-0.096-0.074-0.178-0.17-0.178H9.218c-0.096,0-0.175,0.082-0.175,0.178
			v3.861v0.002c0,0.045,0.023,0.084,0.048,0.119c0,0.002,0,0.002,0,0.002h0.007c0.029,0.031,0.077,0.047,0.119,0.047h0.001h2.483
			c0.096,0,0.172-0.074,0.172-0.17v-0.627C11.873,15.146,11.797,15.076,11.701,15.076"/>
		<path fill="#39A935" d="M20.915,12.801c0.096,0,0.17-0.078,0.17-0.174v-0.619c0-0.096-0.074-0.178-0.17-0.178h-2.483h-0.001
			c-0.045,0-0.093,0.023-0.12,0.047c0,0-0.004,0.004-0.007,0.006c-0.001,0.002-0.001,0.004-0.001,0.006
			c-0.025,0.023-0.048,0.072-0.048,0.119l0,0v3.861v0.002c0,0.045,0.022,0.084,0.048,0.119c0,0.002,0,0.002,0,0.002h0.009
			c0.026,0.031,0.074,0.047,0.119,0.047h0.001h2.483c0.096,0,0.17-0.074,0.17-0.17v-0.627c0-0.096-0.074-0.166-0.17-0.166h-1.691
			v-0.654h1.691c0.096,0,0.17-0.084,0.17-0.178v-0.619c0-0.096-0.074-0.172-0.17-0.172h-1.691v-0.652H20.915z"/>
	</g>
</g>
</svg>
