<svg width="150" height="40" viewBox="0 0 150 40" fill="none" xmlns="http://www.w3.org/2000/svg">
<path d="M74.8274 16.5481C75.2857 16.5476 75.7396 16.6363 76.1631 16.8092C76.5866 16.9821 76.9714 17.2358 77.2954 17.5557C77.6195 17.8756 77.8764 18.2554 78.0516 18.6735C78.2267 19.0916 78.3165 19.5396 78.316 19.992C78.316 20.9054 77.9485 21.7815 77.2942 22.4274C76.64 23.0733 75.7526 23.4362 74.8274 23.4362C73.9025 23.4351 73.0158 23.0719 72.3618 22.4262C71.7078 21.7806 71.3399 20.9051 71.3389 19.992C71.3389 19.0786 71.7064 18.2028 72.3606 17.5569C73.0148 16.911 73.9022 16.5481 74.8274 16.5481Z" fill="#0583C6"/>
<path d="M72.1414 11.4762C71.8139 11.6178 71.4971 11.7822 71.1932 11.9682C70.1992 12.5903 69.3808 13.4505 68.8141 14.4687C68.2474 15.487 67.9507 16.6301 67.9518 17.792C67.9518 19.6188 68.6869 21.3709 69.9954 22.6627C71.3039 23.9544 73.0785 24.6801 74.9289 24.6801C76.779 24.679 78.5531 23.953 79.8614 22.6615C81.1696 21.37 81.9051 19.6185 81.9061 17.792C81.9061 12.56 76.5173 9.60416 72.1576 11.4682L72.1414 11.4762ZM89.4423 28.1762H60.0145V36.4721H89.4423V28.1762ZM94.9771 21.4L96.6626 20.408L98.3805 21.7961L100.103 23.184L99.6973 24.2L98.3562 23.3281L97.0191 22.4602L95.8036 22.8602L95.5646 22.94L95.0662 24.14L95.1837 24.3641L95.7712 25.4801L97.3473 25.7721L98.9235 26.0602L98.5183 27.0762L96.3019 26.8961L94.0856 26.7201L93.5751 24.8521L86.8574 22.1762C86.2967 23.1145 85.6262 23.9844 84.8598 24.7682H93.5751V39.9682H56.1207V24.7682H65.0346C64.2529 23.9685 63.5726 23.0778 63.0087 22.116L56.141 24.8521L55.6224 26.7201L53.4101 26.8961L51.1938 27.0762L50.7886 26.0602L52.3607 25.7721L53.9369 25.4801L54.5284 24.3641L54.6459 24.14L54.1476 22.94L53.9044 22.8602L52.6889 22.4602L51.3518 23.3281L50.0106 24.2L49.6055 23.184L51.3235 21.7961L53.0455 20.408L54.731 21.4L61.5865 18.6721C61.3112 17.5689 61.1751 16.4362 61.1814 15.3C61.1814 15.208 61.1814 15.12 61.1814 15.032L58.3451 17.832H53.6289L65.0954 6.50801H54.9011V12.4441H50.8251V3.24414H72.4777L70.2735 0H75.3099L77.5099 3.24414H99.1422V12.4441H95.1107V6.53203H69.8035L67.7371 8.57207H93.6967L91.1684 10.8881L88.4253 11.984H88.3808C88.654 13.074 88.7901 14.1931 88.786 15.316C88.7865 16.4765 88.6381 17.6324 88.3443 18.7561L94.9771 21.4Z" fill="#0583C6"/>
<path d="M0 3.29614V6.90814H21.7944V39.9881H26.3486V6.90814H48.1267V3.29614H0Z" fill="#0583C6"/>
<path d="M140.661 19.5601L150 4.09995V2.80405H128.121V5.49194H119.365V1.78003H115.204V5.49604H101.894V8.82397H115.204V14.824H102.619V18.1521H115.204V25.2121H101.185V28.54H113.494L102.149 40H107.416L118.567 28.5201H128.092V40H132.124V35.38L134.851 37.38H148.14V17.8521H144.089V34.132H132.128V6.13198H144.611L136.289 19.5601H140.661ZM128.141 25.2041H119.385V18.18H128.141V25.2041ZM128.141 14.8361H119.365V8.83608H128.141V14.8361Z" fill="#0583C6"/>
<path d="M73.9767 19.3801C74.2221 19.3801 74.4575 19.476 74.6313 19.6469C74.8052 19.8178 74.9035 20.0498 74.9046 20.292C74.9035 20.5347 74.8054 20.7672 74.6316 20.9387C74.4579 21.1103 74.2224 21.207 73.9767 21.2081C73.7309 21.207 73.4955 21.1103 73.3217 20.9387C73.148 20.7672 73.0499 20.5347 73.0488 20.292C73.0499 20.0498 73.1482 19.8178 73.322 19.6469C73.4959 19.476 73.7313 19.3801 73.9767 19.3801" fill="white"/>
</svg>
